<svg width="1024" height="1024" viewBox="0 0 1024 1024" fill="none" xmlns="http://www.w3.org/2000/svg">
<g clip-path="url(#clip0_41_38)">
<rect width="1024" height="1024" rx="240" fill="white"/>
<ellipse opacity="0.06" cx="512" cy="502" rx="700" ry="550" fill="url(#paint0_radial_41_38)"/>
<g filter="url(#filter0_f_41_38)">
<path d="M607.737 193.069C697.486 195.363 769.421 258.545 769.421 336.158C769.421 336.72 769.415 337.281 769.408 337.842H769.421V358.053H769.385C769.409 359.172 769.421 360.295 769.421 361.421C769.421 428.585 725.479 483.968 668.773 491.826C670.212 492.183 671.644 492.556 673.069 492.944C746.766 496.337 805.597 558.161 806.454 634.263H806.474V657.842H806.461C806.466 658.403 806.474 658.964 806.474 659.526C806.474 753.221 727.145 829.561 627.947 832.882V833H348.368C275.816 833 217 774.184 217 701.632V324.368C217 251.816 275.816 193 348.368 193H607.737V193.069ZM419.105 566.895V698.263H557.211C590.696 698.263 617.842 668.855 617.842 632.579C617.842 596.303 590.696 566.895 557.211 566.895H419.105ZM419.105 331.105V452.368H526.895C558.52 452.368 584.158 425.223 584.158 391.737C584.158 358.251 558.52 331.105 526.895 331.105H419.105Z" fill="black" fill-opacity="0.06"/>
</g>
<path d="M348.263 191.5H606.923V191.557L607.41 191.569C696.888 193.858 768.478 256.883 768.478 334.158C768.478 334.717 768.471 335.276 768.464 335.835L768.457 336.342H768.478V355.553H768.43L768.441 356.063C768.466 357.179 768.478 358.298 768.478 359.421C768.478 426.386 724.707 481.513 668.342 489.33L668.289 490.311C669.723 490.666 671.151 491.039 672.571 491.427L672.624 491.441L672.68 491.443C746.043 494.824 804.627 556.422 805.48 632.269L805.486 632.763H805.5V655.342H805.481L805.487 655.847C805.493 656.41 805.5 656.968 805.5 657.526C805.5 750.922 726.479 827.07 627.601 830.382L627.117 830.398V830.5H348.263C276.045 830.5 217.5 771.909 217.5 699.632V322.368C217.5 250.656 275.134 192.416 346.573 191.511L348.263 191.5ZM418.442 696.763H556.938C590.71 696.762 618.019 667.093 618.02 630.579C618.02 594.066 590.71 564.395 556.938 564.395H418.442V696.763ZM418.442 450.868H526.646C558.549 450.868 584.363 423.471 584.363 389.737C584.363 356.003 558.549 328.605 526.646 328.605H418.442V450.868Z" fill="url(#paint1_linear_41_38)" stroke="white"/>
</g>
<defs>
<filter id="filter0_f_41_38" x="173" y="149" width="677.474" height="728" filterUnits="userSpaceOnUse" color-interpolation-filters="sRGB">
<feFlood flood-opacity="0" result="BackgroundImageFix"/>
<feBlend mode="normal" in="SourceGraphic" in2="BackgroundImageFix" result="shape"/>
<feGaussianBlur stdDeviation="22" result="effect1_foregroundBlur_41_38"/>
</filter>
<radialGradient id="paint0_radial_41_38" cx="0" cy="0" r="1" gradientUnits="userSpaceOnUse" gradientTransform="translate(512 502) rotate(90) scale(1119.5 1424.82)">
<stop stop-color="white" stop-opacity="0"/>
<stop offset="1" stop-color="#D6F8F9" stop-opacity="0.04"/>
</radialGradient>
<linearGradient id="paint1_linear_41_38" x1="217" y1="191" x2="886.5" y2="523" gradientUnits="userSpaceOnUse">
<stop stop-color="#2FA6D9" stop-opacity="0.8"/>
<stop offset="0.495192" stop-color="#38C0D8" stop-opacity="0.8"/>
<stop offset="1" stop-color="#8DE3DE" stop-opacity="0.8"/>
</linearGradient>
<clipPath id="clip0_41_38">
<rect width="1024" height="1024" rx="240" fill="white"/>
</clipPath>
</defs>
</svg>
