<svg width="179" height="36" viewBox="0 0 179 36" fill="none" xmlns="http://www.w3.org/2000/svg">
<path d="M4.704 0V34.704H2.6226e-06V0H4.704ZM13.632 19.392H3.408V15.312H13.248C15.2 15.312 16.704 14.816 17.76 13.824C18.816 12.832 19.344 11.424 19.344 9.6C19.344 7.872 18.784 6.544 17.664 5.616C16.576 4.656 15.008 4.176 12.96 4.176H2.592V0H13.248C16.64 0 19.296 0.816 21.216 2.448C23.168 4.08 24.144 6.32 24.144 9.168C24.144 11.312 23.616 13.104 22.56 14.544C21.536 15.952 20.016 16.976 18 17.616V16.992C20.24 17.536 21.92 18.528 23.04 19.968C24.192 21.376 24.768 23.2 24.768 25.44C24.768 27.36 24.32 29.024 23.424 30.432C22.56 31.808 21.296 32.864 19.632 33.6C17.968 34.336 16 34.704 13.728 34.704H2.592V30.528H13.632C15.648 30.528 17.2 30.032 18.288 29.04C19.376 28.048 19.92 26.656 19.92 24.864C19.92 23.136 19.36 21.792 18.24 20.832C17.152 19.872 15.616 19.392 13.632 19.392ZM35.7923 35.28C33.2963 35.28 31.3283 34.624 29.8883 33.312C28.4803 32 27.7763 30.288 27.7763 28.176C27.7763 26.032 28.5443 24.32 30.0803 23.04C31.6163 21.728 33.7603 20.96 36.5123 20.736L43.9043 20.16V19.488C43.9043 18.176 43.6643 17.136 43.1843 16.368C42.7043 15.568 42.0483 15.008 41.2163 14.688C40.3843 14.336 39.4403 14.16 38.3843 14.16C36.4963 14.16 35.0243 14.56 33.9683 15.36C32.9443 16.128 32.4323 17.232 32.4323 18.672H28.4963C28.4963 17.04 28.9123 15.616 29.7443 14.4C30.5763 13.184 31.7443 12.24 33.2483 11.568C34.7843 10.896 36.5603 10.56 38.5763 10.56C40.5283 10.56 42.2243 10.912 43.6643 11.616C45.1363 12.288 46.2723 13.328 47.0723 14.736C47.9043 16.112 48.3203 17.856 48.3203 19.968V34.704H44.4803L44.0003 30.912C43.3923 32.256 42.3363 33.328 40.8323 34.128C39.3603 34.896 37.6803 35.28 35.7923 35.28ZM37.0883 31.776C39.2323 31.776 40.9123 31.136 42.1283 29.856C43.3443 28.544 43.9523 26.784 43.9523 24.576V23.328L37.9523 23.808C35.9683 24 34.5283 24.464 33.6323 25.2C32.7683 25.936 32.3363 26.88 32.3363 28.032C32.3363 29.28 32.7523 30.224 33.5843 30.864C34.4483 31.472 35.6163 31.776 37.0883 31.776ZM67.0489 11.04V15.168H65.0329C62.8889 15.168 61.1929 15.792 59.9449 17.04C58.7289 18.256 58.1209 20 58.1209 22.272V34.704H53.6089V11.28H57.8329L58.2169 15.984H57.7849C58.1049 14.448 58.8729 13.2 60.0889 12.24C61.3049 11.248 62.8249 10.752 64.6489 10.752C65.0649 10.752 65.4489 10.784 65.8009 10.848C66.1849 10.88 66.6009 10.944 67.0489 11.04ZM79.605 35.28C77.333 35.28 75.317 34.768 73.557 33.744C71.797 32.688 70.421 31.248 69.429 29.424C68.437 27.568 67.941 25.424 67.941 22.992C67.941 20.528 68.421 18.368 69.381 16.512C70.373 14.656 71.717 13.2 73.413 12.144C75.141 11.088 77.141 10.56 79.413 10.56C81.653 10.56 83.589 11.04 85.221 12C86.885 12.96 88.165 14.304 89.061 16.032C89.989 17.76 90.453 19.792 90.453 22.128V23.808L70.341 23.856L70.437 20.832H85.941C85.941 18.88 85.349 17.312 84.165 16.128C82.981 14.944 81.397 14.352 79.413 14.352C77.909 14.352 76.613 14.688 75.525 15.36C74.469 16 73.653 16.96 73.077 18.24C72.533 19.488 72.261 20.992 72.261 22.752C72.261 25.568 72.901 27.744 74.181 29.28C75.461 30.784 77.301 31.536 79.701 31.536C81.461 31.536 82.901 31.184 84.021 30.48C85.141 29.776 85.893 28.752 86.277 27.408H90.501C89.925 29.904 88.693 31.84 86.805 33.216C84.917 34.592 82.517 35.28 79.605 35.28ZM112.113 35.1C109.713 35.1 107.601 34.548 105.777 33.444C103.977 32.316 102.561 30.756 101.529 28.764C100.521 26.772 100.017 24.456 100.017 21.816C100.017 19.176 100.533 16.86 101.565 14.868C102.597 12.852 104.037 11.292 105.885 10.188C107.733 9.06 109.857 8.496 112.257 8.496C114.129 8.496 115.821 8.844 117.333 9.54C118.845 10.236 120.117 11.22 121.149 12.492C122.181 13.74 122.865 15.228 123.201 16.956H120.429C119.877 15.084 118.869 13.62 117.405 12.564C115.941 11.508 114.189 10.98 112.149 10.98C110.277 10.98 108.621 11.436 107.181 12.348C105.765 13.236 104.661 14.496 103.869 16.128C103.101 17.736 102.717 19.632 102.717 21.816C102.717 23.952 103.113 25.836 103.905 27.468C104.697 29.1 105.801 30.372 107.217 31.284C108.633 32.172 110.277 32.616 112.149 32.616C114.189 32.616 115.965 32.1 117.477 31.068C118.989 30.036 120.021 28.668 120.573 26.964H123.345C122.961 28.572 122.229 29.988 121.149 31.212C120.093 32.436 118.785 33.396 117.225 34.092C115.665 34.764 113.961 35.1 112.113 35.1ZM131.499 34.704H128.907V8.928H138.519C141.111 8.928 143.151 9.6 144.639 10.944C146.151 12.264 146.907 14.076 146.907 16.38C146.907 18.228 146.439 19.776 145.503 21.024C144.591 22.272 143.307 23.124 141.651 23.58L147.159 34.704H144.279L139.023 24.012H131.499V34.704ZM131.499 11.268V21.672H138.591C140.367 21.672 141.747 21.204 142.731 20.268C143.739 19.332 144.243 18.06 144.243 16.452C144.243 14.772 143.727 13.488 142.695 12.6C141.663 11.712 140.271 11.268 138.519 11.268H131.499ZM157.011 34.704H154.455V8.928H157.011L166.407 31.644L175.803 8.928H178.395V34.704H175.839V22.464C175.839 21.336 175.839 20.352 175.839 19.512C175.863 18.672 175.875 17.94 175.875 17.316C175.899 16.692 175.923 16.14 175.947 15.66C175.971 15.156 176.007 14.676 176.055 14.22L167.667 34.704H165.183L156.795 14.328C156.867 14.808 156.915 15.732 156.939 17.1C156.987 18.444 157.011 20.1 157.011 22.068V34.704Z" fill="#111418"/>
</svg>
